<?xml version="1.0" standalone="no"?>
<!DOCTYPE svg PUBLIC "-//W3C//DTD SVG 20010904//EN"
 "http://www.w3.org/TR/2001/REC-SVG-20010904/DTD/svg10.dtd">
<svg version="1.0" xmlns="http://www.w3.org/2000/svg"
 width="4600.000000pt" height="3288.000000pt" viewBox="0 0 4600.000000 3288.000000"
 preserveAspectRatio="xMidYMid meet">
<metadata>
Created by potrace 1.15, written by Peter Selinger 2001-2017
</metadata>
<g transform="translate(0.000000,3288.000000) scale(0.100000,-0.100000)"
fill="#000000" stroke="none">
<path d="M26363 32869 c-7 -7 -13 -19 -13 -26 0 -7 -4 -13 -8 -13 -5 0 -15
-18 -22 -39 -7 -22 -19 -42 -25 -45 -7 -2 -16 -18 -20 -35 -4 -17 -10 -31 -14
-31 -3 0 -12 -12 -19 -27 -7 -16 -32 -64 -57 -108 -24 -44 -47 -88 -51 -97 -3
-10 -10 -18 -14 -18 -5 0 -14 -17 -21 -37 -6 -21 -18 -41 -25 -46 -7 -4 -15
-21 -19 -37 -4 -17 -11 -30 -16 -30 -5 0 -11 -11 -15 -25 -3 -14 -9 -25 -13
-25 -4 0 -13 -16 -21 -35 -8 -19 -17 -35 -20 -35 -4 0 -13 -18 -20 -40 -7 -22
-17 -40 -21 -40 -4 0 -13 -16 -20 -35 -7 -19 -16 -35 -20 -35 -4 0 -10 -13
-14 -30 -4 -16 -10 -30 -15 -30 -9 0 -70 -120 -70 -137 0 -6 -7 -13 -15 -17
-8 -3 -15 -12 -15 -21 0 -8 -4 -15 -10 -15 -5 0 -15 -18 -21 -40 -7 -22 -16
-40 -20 -40 -4 0 -13 -16 -20 -35 -7 -19 -16 -35 -20 -35 -4 0 -13 -16 -19
-35 -6 -19 -15 -35 -19 -35 -4 0 -20 -29 -36 -65 -16 -36 -33 -65 -37 -65 -3
0 -12 -16 -19 -35 -7 -19 -16 -35 -20 -35 -4 0 -10 -13 -14 -30 -4 -16 -10
-30 -15 -30 -5 0 -23 -29 -40 -65 -17 -36 -35 -67 -40 -70 -5 -3 -14 -22 -21
-42 -7 -21 -18 -44 -26 -51 -7 -7 -13 -22 -13 -32 0 -19 -24 -18 815 -41 971
-25 1100 -30 1103 -39 2 -6 9 -16 15 -23 7 -6 25 -32 42 -57 16 -25 32 -47 35
-50 3 -3 36 -51 73 -107 38 -56 75 -107 83 -114 8 -6 14 -18 14 -26 0 -7 7
-16 15 -19 8 -4 15 -11 15 -17 0 -5 11 -24 23 -41 29 -37 86 -119 141 -201 23
-33 45 -64 49 -70 4 -5 52 -73 107 -150 54 -77 103 -145 108 -151 5 -5 15 -21
22 -34 7 -13 17 -29 22 -34 5 -6 47 -65 93 -131 46 -66 90 -128 97 -137 7 -9
18 -25 25 -35 13 -19 49 -71 140 -201 32 -46 64 -94 71 -108 7 -13 17 -24 23
-24 5 0 9 -6 9 -14 0 -7 11 -21 23 -29 23 -15 24 -14 37 19 8 19 17 34 20 34
4 0 13 18 20 40 7 22 16 40 20 40 4 0 11 8 14 18 4 9 27 53 51 97 25 44 52 97
61 118 10 20 20 37 25 37 4 0 10 14 14 30 4 17 10 30 14 30 4 0 13 16 21 35 8
19 17 35 21 35 4 0 13 17 20 38 6 20 15 39 18 42 10 8 29 41 67 115 65 125 73
140 83 152 6 6 13 23 17 37 3 14 9 26 13 26 4 0 13 16 21 35 8 19 17 35 21 35
5 0 14 18 20 40 7 22 15 40 19 40 4 0 11 8 14 18 4 9 27 53 51 97 24 44 52 96
62 115 10 19 21 37 25 40 3 3 10 18 13 33 4 15 11 27 15 27 5 0 14 16 21 35 7
19 16 35 20 35 4 0 13 17 20 38 6 20 15 39 18 42 9 7 29 40 49 80 9 19 20 37
23 40 3 3 12 22 18 43 7 20 16 37 20 37 9 0 61 100 61 117 0 6 4 13 9 15 11 4
71 117 71 134 0 8 4 14 8 14 4 0 21 26 37 58 17 31 33 59 36 62 3 3 12 22 18
43 7 20 16 37 20 37 9 0 61 100 61 117 0 6 4 13 9 15 11 4 71 117 71 134 0 8
4 14 8 14 4 0 21 26 37 58 17 31 33 59 36 62 3 3 11 21 19 40 8 19 17 37 21
40 4 3 25 39 47 80 22 41 51 97 66 124 14 27 26 55 26 62 0 8 4 14 8 14 4 0
21 26 37 58 17 31 33 59 36 62 3 3 12 22 20 43 7 20 17 37 21 37 4 0 21 28 38
63 39 81 97 189 109 204 6 6 13 23 17 37 3 14 10 26 14 26 4 0 13 15 21 33 7
17 16 34 20 37 4 3 11 18 14 33 l7 27 -166 0 c-91 0 -166 4 -166 9 0 4 -717
11 -1592 15 -876 3 -1735 9 -1908 12 -252 5 -317 4 -327 -7z"/>
<path d="M13893 29289 c5 -17 2 -20 -13 -16 -20 5 -45 -15 -33 -26 3 -4 -1 -7
-11 -7 -9 0 -15 -4 -12 -9 3 -5 -2 -15 -11 -22 -14 -12 -16 -12 -8 1 5 10 1 8
-13 -4 -12 -10 -19 -23 -16 -27 3 -5 0 -9 -7 -9 -16 0 -59 -47 -50 -56 3 -4 1
-4 -5 -1 -5 3 -43 -26 -82 -66 -40 -40 -85 -83 -101 -97 -15 -14 -26 -29 -23
-35 3 -5 1 -7 -3 -2 -8 7 -43 -26 -298 -278 -61 -60 -114 -109 -119 -107 -4 1
-8 -5 -8 -13 0 -8 -5 -15 -10 -15 -19 0 -310 -299 -310 -318 0 -22 20 -85 30
-92 3 -3 12 -24 20 -47 7 -24 16 -43 21 -43 4 0 10 -12 14 -27 3 -15 17 -50
31 -79 13 -28 24 -56 24 -62 0 -7 4 -12 9 -12 5 0 13 -10 16 -22 4 -13 15 -42
26 -65 10 -24 19 -47 19 -53 0 -5 5 -10 10 -10 6 0 10 -5 10 -11 0 -14 52
-132 61 -139 3 -3 9 -16 13 -30 7 -24 42 -104 71 -160 7 -14 15 -37 19 -52 3
-16 11 -28 16 -28 5 0 12 -16 16 -35 3 -19 10 -35 15 -35 5 0 9 -6 9 -14 0 -7
11 -33 23 -57 13 -24 27 -57 31 -73 4 -15 14 -35 21 -43 8 -8 15 -23 15 -34 0
-10 4 -19 10 -19 5 0 15 -20 21 -45 6 -25 15 -45 19 -45 4 0 12 -18 19 -40 6
-22 16 -40 20 -40 5 0 12 -16 15 -35 4 -19 14 -41 22 -50 8 -8 17 -25 19 -37
3 -13 9 -24 15 -26 5 -2 10 -12 10 -22 0 -27 11 -51 20 -45 5 3 7 -3 6 -12 -2
-10 2 -21 8 -25 6 -4 11 -11 12 -15 3 -29 18 -62 26 -57 5 3 8 0 7 -7 -3 -20
12 -69 21 -69 5 0 12 -14 15 -32 4 -17 18 -51 31 -76 13 -25 24 -51 24 -58 0
-8 4 -14 8 -14 4 0 14 -20 21 -45 7 -25 17 -45 21 -45 5 0 11 -13 15 -30 4
-16 11 -30 16 -30 5 0 9 -8 9 -17 0 -16 22 -65 96 -218 19 -39 34 -78 34 -88
0 -9 4 -17 8 -17 5 0 15 -18 22 -40 7 -22 17 -40 21 -40 4 0 11 -14 14 -32 8
-34 44 -109 56 -118 4 -3 13 -27 19 -53 7 -26 16 -47 21 -47 5 0 9 -5 9 -11 0
-14 52 -132 61 -139 3 -3 11 -21 18 -41 6 -20 20 -53 31 -74 11 -22 20 -45 20
-52 0 -7 5 -13 10 -13 6 0 10 -5 10 -11 0 -5 11 -35 25 -65 14 -30 25 -59 25
-64 0 -6 4 -10 9 -10 5 0 12 -12 15 -27 6 -26 19 -54 100 -223 14 -30 26 -61
26 -68 0 -6 4 -12 8 -12 4 0 13 -20 20 -45 7 -25 16 -45 21 -45 5 0 12 -13 16
-30 4 -16 10 -30 14 -30 4 0 12 -17 17 -37 14 -60 38 -54 125 29 41 40 117
111 168 158 51 47 119 110 151 140 32 30 104 98 159 150 l101 95 0 655 0 656
-57 12 c-32 6 -92 14 -133 17 -41 3 -102 10 -135 16 -33 6 -132 17 -220 25
-88 8 -216 21 -285 29 -69 7 -179 18 -245 25 -66 6 -140 15 -165 20 -25 6 -94
13 -153 16 l-109 7 7 151 c4 83 11 153 15 156 4 3 13 121 20 263 8 141 17 257
21 257 4 0 10 74 14 165 4 91 11 165 15 165 3 0 13 117 20 260 7 143 16 260
20 260 4 0 13 111 20 248 7 136 16 252 20 257 5 6 11 85 15 178 4 92 11 167
15 167 4 0 11 72 15 160 4 88 11 162 16 165 10 7 0 35 -13 35 -6 0 -8 -9 -5
-21z"/>
<path d="M20130 27747 c-14 -6 -44 -19 -67 -29 -23 -10 -45 -18 -48 -18 -3 0
-27 -9 -53 -21 -26 -12 -63 -28 -82 -36 -19 -9 -72 -33 -118 -54 -46 -22 -86
-39 -90 -39 -4 0 -29 -12 -57 -25 -27 -14 -56 -25 -62 -25 -7 0 -13 -4 -13
-10 0 -5 -5 -10 -12 -10 -11 0 -30 -8 -148 -61 -73 -33 -102 -46 -165 -74 -33
-14 -73 -32 -90 -40 -39 -18 -140 -63 -185 -82 -19 -8 -53 -24 -76 -34 -22
-10 -46 -19 -52 -19 -7 0 -12 -4 -12 -9 0 -5 -12 -12 -26 -15 -15 -4 -58 -23
-96 -42 -39 -18 -74 -34 -78 -34 -4 0 -46 -18 -92 -39 -45 -22 -95 -43 -110
-46 -16 -4 -28 -11 -28 -16 0 -5 -5 -9 -12 -9 -6 0 -30 -9 -52 -19 -23 -10
-59 -27 -81 -36 -22 -10 -65 -29 -95 -42 -30 -14 -68 -31 -85 -38 -59 -26
-122 -54 -208 -94 -49 -23 -91 -41 -95 -41 -3 0 -40 -16 -82 -36 -41 -20 -93
-44 -115 -54 -55 -24 -204 -90 -240 -105 -45 -19 -110 -49 -208 -94 -49 -23
-92 -41 -95 -41 -4 -1 -25 -9 -47 -20 -22 -11 -45 -19 -51 -20 -6 0 -17 -6
-23 -14 -7 -8 -27 -17 -46 -20 -19 -4 -35 -11 -35 -15 0 -5 -11 -12 -25 -15
-14 -4 -51 -18 -83 -32 -31 -15 -82 -37 -112 -51 -70 -32 -58 -39 90 -47 63
-4 167 -13 230 -21 63 -8 169 -19 235 -25 423 -39 688 -64 830 -81 50 -6 158
-17 240 -24 83 -7 242 -22 355 -34 113 -11 257 -25 320 -31 63 -5 167 -17 230
-25 63 -8 160 -17 215 -20 55 -4 150 -13 210 -20 61 -7 151 -16 200 -20 50 -3
117 -10 150 -15 33 -5 125 -14 205 -20 171 -14 190 -16 210 -23 8 -3 55 -8
104 -11 l88 -5 -6 47 c-3 26 -8 77 -12 115 -4 37 -10 67 -14 67 -5 0 -11 36
-15 80 -4 44 -11 80 -15 80 -4 0 -13 59 -20 130 -7 72 -16 130 -20 130 -4 0
-13 56 -20 125 -7 69 -16 125 -20 125 -4 0 -13 54 -20 120 -7 66 -16 120 -20
120 -4 0 -11 37 -15 82 -4 46 -10 85 -15 88 -4 3 -14 62 -21 133 -7 70 -16
127 -20 127 -3 0 -12 56 -19 125 -8 69 -17 125 -21 125 -4 0 -10 36 -14 80 -4
44 -11 80 -15 80 -5 0 -10 6 -12 14 -2 10 -9 11 -28 3z"/>
<path d="M16376 22274 c-13 -242 -25 -594 -25 -776 -1 -103 -5 -189 -9 -192
-5 -3 -12 -173 -16 -378 -4 -205 -11 -422 -17 -481 -6 -60 -8 -111 -5 -114 6
-6 52 27 97 68 14 13 47 42 73 64 27 22 56 47 66 55 10 8 36 31 60 50 23 19
47 40 54 47 7 6 42 35 77 64 35 29 69 58 76 64 6 5 30 26 54 45 23 19 47 40
54 47 6 6 41 35 76 64 35 29 66 55 69 59 3 3 30 25 60 49 30 25 60 49 65 55 6
6 37 34 70 61 33 28 67 57 76 65 9 8 29 25 45 37 16 12 43 34 61 50 17 15 49
42 70 60 21 17 54 45 73 62 19 17 40 34 45 38 15 12 126 105 146 123 10 8 36
31 59 50 22 19 46 40 53 46 55 49 121 105 157 134 24 19 53 44 65 55 20 17 80
69 149 128 37 32 119 104 159 139 l38 34 -170 14 c-94 7 -171 16 -171 20 0 4
-97 15 -215 25 -118 10 -215 22 -215 27 0 4 -25 8 -55 8 -30 0 -55 4 -55 8 0
5 -74 14 -165 21 -91 8 -165 17 -165 21 0 3 -101 15 -225 25 -124 11 -225 23
-225 27 0 4 -27 8 -60 8 -33 0 -60 4 -60 9 0 4 -37 11 -82 14 -46 4 -110 10
-144 13 l-61 7 -7 -119z"/>
<path d="M13327 21156 c-4 -77 -7 -192 -7 -258 0 -65 -4 -118 -9 -118 -5 0
-12 -581 -16 -1330 -4 -742 -11 -1333 -16 -1336 -14 -8 -11 -361 3 -370 6 -4
8 -3 5 3 -4 6 3 18 16 26 12 8 34 25 48 38 30 28 115 101 179 154 46 38 82 68
224 189 110 93 187 159 200 171 6 6 38 32 71 60 33 27 62 52 65 55 3 3 30 25
60 50 30 25 89 74 130 110 41 35 86 74 99 85 14 11 37 31 52 45 15 14 39 34
54 44 14 11 36 29 48 40 13 12 47 41 77 66 29 25 67 57 84 72 17 15 63 53 101
85 72 60 126 107 155 133 8 8 31 27 50 41 19 15 47 37 61 50 59 54 108 96 149
129 24 19 64 53 89 75 25 22 51 45 59 50 7 6 26 21 41 35 16 14 50 43 77 66
40 33 132 112 224 192 8 7 35 29 60 50 24 20 67 57 95 82 28 25 74 65 103 89
28 24 69 61 91 81 22 21 45 40 53 42 23 8 -14 34 -70 48 -29 8 -52 17 -52 21
0 4 -22 12 -50 19 -27 7 -50 15 -50 19 0 4 -25 14 -55 21 -30 7 -55 17 -55 21
0 5 -16 11 -35 15 -19 3 -35 10 -35 14 0 4 -25 13 -55 20 -30 7 -55 17 -55 21
0 5 -20 14 -45 20 -25 6 -45 15 -45 19 0 4 -16 11 -35 14 -19 4 -35 10 -35 15
0 4 -25 14 -55 21 -30 7 -55 17 -55 21 0 4 -25 13 -55 20 -30 7 -55 16 -55 20
0 5 -16 11 -35 15 -19 3 -35 10 -35 14 0 4 -20 13 -45 19 -25 6 -45 16 -45 21
0 6 -7 10 -15 10 -23 0 -95 24 -95 31 0 4 -22 12 -50 19 -27 7 -50 16 -50 20
0 5 -18 11 -40 15 -22 4 -40 10 -40 15 0 4 -22 13 -50 20 -27 7 -50 15 -50 19
0 4 -23 13 -52 21 -29 7 -58 19 -66 26 -7 8 -24 14 -38 14 -13 0 -24 4 -24 10
0 5 -20 15 -45 21 -25 6 -45 15 -45 19 0 4 -25 12 -55 19 -30 7 -55 16 -55 20
0 4 -25 14 -55 21 -30 7 -55 17 -55 21 0 5 -16 11 -35 15 -19 3 -35 10 -35 14
0 4 -20 13 -45 19 -25 6 -45 16 -45 21 0 6 -7 10 -15 10 -23 0 -95 24 -95 31
0 4 -16 10 -35 13 -19 4 -35 10 -35 15 0 4 -25 14 -55 21 -30 7 -55 17 -55 21
0 4 -22 12 -50 19 -27 7 -50 16 -50 20 0 4 -16 11 -35 14 -19 4 -35 10 -35 14
0 8 -71 32 -95 32 -8 0 -15 4 -15 8 0 5 -22 14 -50 22 -36 10 -50 19 -52 34
-2 12 -7 -42 -11 -118z"/>
<path d="M30445 19826 c-11 -7 -22 -13 -25 -13 -7 0 -144 -66 -150 -73 -3 -3
-54 -31 -115 -61 -145 -73 -381 -197 -420 -220 -16 -10 -61 -34 -100 -53 -38
-19 -119 -62 -180 -96 -60 -33 -126 -67 -145 -76 -33 -14 -36 -20 -52 -92 -9
-42 -20 -99 -23 -127 -4 -27 -13 -75 -20 -105 -8 -30 -17 -82 -21 -115 -3 -33
-10 -64 -14 -70 -4 -5 -11 -37 -14 -70 -4 -33 -11 -73 -16 -90 -5 -16 -16 -70
-24 -120 -8 -49 -24 -137 -35 -195 -11 -58 -30 -157 -42 -220 -11 -63 -27
-146 -35 -185 -7 -38 -22 -117 -33 -175 -11 -58 -29 -157 -41 -220 -12 -63
-28 -149 -35 -190 -7 -41 -15 -82 -19 -90 -3 -8 -12 -55 -21 -105 -24 -148
-43 -250 -54 -291 -5 -21 -13 -68 -17 -104 l-6 -66 128 16 c71 9 136 19 144
22 8 4 69 12 135 19 66 7 125 15 130 19 6 4 70 13 143 20 72 7 132 16 132 20
0 4 37 10 82 14 44 4 86 10 92 14 11 7 160 28 239 34 l38 3 -1 714 0 715 37
-40 c58 -62 125 -137 158 -179 17 -20 44 -50 60 -66 l30 -29 7 53 c3 28 6 87
7 130 1 42 5 77 9 77 5 0 15 117 22 260 7 143 17 260 21 260 4 0 10 74 14 165
4 91 11 165 14 165 4 0 13 116 21 258 7 141 16 259 20 262 4 3 11 74 15 158 8
163 6 170 -40 138z"/>
<path d="M24659 17674 c0 -27 -5 -74 -10 -104 -5 -30 -13 -95 -19 -145 -5 -49
-16 -142 -25 -205 -9 -63 -23 -160 -30 -215 -8 -55 -17 -129 -20 -165 -3 -36
-12 -112 -20 -170 -23 -172 -34 -258 -50 -398 -8 -73 -16 -136 -19 -140 -2 -4
-9 -61 -15 -127 -7 -66 -18 -167 -26 -225 -22 -159 -34 -259 -56 -440 -39
-320 -47 -385 -53 -415 -4 -16 -13 -91 -22 -165 -8 -74 -23 -207 -34 -295 -12
-88 -27 -214 -35 -280 -7 -66 -16 -129 -19 -140 -4 -11 -13 -85 -21 -165 -8
-80 -19 -176 -24 -215 -20 -143 -32 -243 -46 -375 -8 -74 -17 -146 -21 -160
-3 -14 -12 -81 -20 -150 -8 -69 -24 -199 -35 -290 -11 -91 -26 -223 -34 -295
-8 -71 -19 -152 -24 -180 -6 -27 -13 -93 -17 -145 -4 -52 -11 -101 -17 -108
-5 -7 -7 -15 -4 -18 9 -9 54 4 71 21 8 8 18 15 22 15 4 0 22 11 40 25 18 14
38 25 44 25 6 0 13 7 16 15 4 8 12 15 20 15 7 0 17 6 21 13 4 6 22 19 38 27
17 8 34 21 38 27 4 7 12 13 18 13 9 0 56 30 85 55 7 6 35 24 63 40 28 17 51
33 51 38 0 4 7 7 15 7 9 0 18 6 21 13 3 8 20 20 39 27 19 8 35 18 35 22 0 5
11 13 25 18 14 5 25 14 25 19 0 5 10 11 23 15 13 3 34 14 48 26 13 11 29 24
35 28 5 5 21 15 34 22 13 7 29 17 34 21 30 25 114 80 134 89 12 5 22 13 22 17
0 5 15 14 33 22 17 8 34 17 37 20 3 3 25 20 50 36 25 17 51 35 58 42 6 6 21
15 32 18 11 3 20 10 20 14 0 5 14 14 30 21 17 7 30 16 30 21 0 5 7 9 15 9 9 0
18 7 21 15 4 8 11 15 17 15 5 0 25 11 43 25 18 14 38 25 44 25 6 0 13 6 16 14
3 8 16 17 30 20 13 4 24 10 24 15 0 5 14 14 30 21 17 7 30 16 30 20 0 4 14 13
30 20 17 7 30 16 30 21 0 4 9 11 20 14 11 3 26 12 33 18 24 23 76 57 86 57 6
0 14 6 18 13 4 6 22 19 38 27 17 8 39 23 50 33 11 10 33 26 49 34 29 15 41 24
75 53 9 8 30 22 46 30 17 8 34 21 38 27 4 7 15 13 22 13 8 0 15 4 15 9 0 5 14
14 30 21 17 7 30 16 30 21 0 4 9 11 20 14 11 3 26 12 33 18 25 23 76 57 87 57
6 0 13 7 16 15 4 8 11 15 17 15 5 0 25 11 43 25 18 14 38 25 44 25 6 0 13 7
16 15 4 8 13 15 20 15 8 0 17 6 20 14 3 8 16 17 29 20 13 3 30 12 37 19 26 23
77 57 88 57 6 0 13 7 16 15 4 8 11 15 17 15 5 0 25 11 43 25 18 14 38 25 44
25 6 0 13 7 16 15 4 8 13 15 20 15 8 0 17 7 20 15 4 8 10 15 15 15 9 0 111 63
192 119 20 14 49 32 62 39 14 7 25 17 25 23 0 5 6 9 13 9 6 0 25 11 41 25 16
14 35 25 41 25 7 0 15 7 19 15 3 8 10 15 15 15 9 0 72 38 97 59 5 4 21 14 34
21 14 7 30 18 37 24 24 21 38 31 65 45 15 8 25 17 23 22 -3 4 9 10 26 14 17 4
33 13 36 21 3 8 12 14 19 14 8 0 17 6 20 14 3 8 20 20 37 27 18 7 34 15 37 18
10 12 79 61 85 61 4 0 12 6 20 13 7 6 36 26 64 42 28 17 51 33 51 38 0 4 6 7
13 7 6 0 25 11 41 25 16 14 35 25 43 25 7 0 13 5 13 10 0 6 11 15 25 20 14 5
25 14 25 19 0 5 13 14 30 19 16 6 35 16 42 21 51 42 77 61 82 61 7 0 17 7 60
45 16 14 34 25 41 25 7 0 21 8 33 18 48 40 67 52 79 52 7 0 17 9 23 20 6 11
14 18 19 16 4 -3 33 16 65 41 55 42 58 47 53 79 -4 24 -2 32 5 28 8 -5 9 14 5
65 -4 44 -2 69 4 66 5 -4 9 -2 9 4 0 5 -6 12 -12 14 -7 3 -3 6 10 6 18 1 22 7
22 35 0 19 3 42 7 52 4 12 3 15 -5 10 -7 -4 -12 -17 -13 -29 0 -21 -1 -21 -9
-2 -8 18 -9 19 -9 1 -1 -15 -6 -17 -28 -11 -15 3 -30 10 -33 14 -3 5 -29 14
-57 21 -29 8 -53 17 -53 21 0 4 -22 12 -50 19 -27 7 -50 16 -50 20 0 4 -16 11
-35 14 -19 4 -35 11 -35 16 0 4 -18 11 -40 15 -22 4 -47 13 -54 21 -8 8 -19
14 -25 14 -21 0 -91 25 -91 32 0 4 -16 10 -35 14 -19 3 -35 10 -35 14 0 4 -22
13 -50 20 -27 7 -50 15 -50 19 0 4 -25 14 -55 21 -30 7 -55 16 -55 20 0 4 -16
11 -35 14 -19 4 -35 10 -35 14 0 8 -71 32 -95 32 -8 0 -15 4 -15 10 0 5 -20
15 -45 21 -25 6 -45 15 -45 19 0 4 -25 13 -55 20 -30 7 -55 17 -55 21 0 5 -16
11 -35 15 -19 3 -35 10 -35 14 0 4 -25 13 -55 20 -30 7 -55 16 -55 20 0 4 -20
13 -45 19 -25 6 -45 16 -45 21 0 6 -11 10 -24 10 -14 0 -31 6 -38 14 -8 7 -37
19 -66 26 -29 8 -52 17 -52 21 0 4 -25 13 -55 20 -30 7 -55 16 -55 20 0 4 -22
12 -50 19 -27 7 -50 16 -50 20 0 4 -16 11 -35 14 -19 4 -35 10 -35 15 0 4 -25
14 -55 21 -30 7 -55 17 -55 21 0 5 -20 14 -45 20 -25 6 -45 15 -45 19 0 5 -18
11 -40 15 -22 4 -40 10 -40 15 0 4 -22 13 -50 20 -27 7 -50 15 -50 19 0 4 -25
14 -55 21 -30 7 -55 17 -55 21 0 5 -16 11 -35 15 -19 3 -35 10 -35 14 0 4 -20
13 -45 19 -25 6 -45 15 -45 21 0 5 -20 12 -45 16 -26 3 -52 12 -58 19 -7 6
-36 18 -65 25 -29 8 -52 17 -52 21 0 5 -16 11 -35 15 -19 3 -35 10 -35 14 0 4
-22 13 -50 20 -27 7 -50 15 -50 19 0 4 -25 14 -55 21 -30 7 -55 16 -55 20 0 4
-15 11 -34 14 -19 4 -37 13 -40 22 -3 8 -11 12 -17 8 -8 -4 -9 -3 -5 5 4 6 12
9 17 6 5 -3 6 1 3 9 -4 9 -1 16 6 16 17 0 60 47 60 65 0 8 -6 18 -13 22 -7 4
-18 20 -24 36 -7 15 -17 27 -23 27 -5 0 -10 6 -10 13 0 6 -14 28 -30 47 -16
19 -30 38 -30 43 0 4 -14 21 -30 39 -17 17 -33 42 -36 54 -3 12 -12 25 -20 28
-8 3 -14 11 -14 18 0 8 -8 21 -17 30 -41 40 -53 56 -53 71 0 9 -9 21 -20 27
-11 6 -20 17 -20 25 0 8 -6 18 -13 22 -6 4 -19 22 -27 38 -8 17 -25 39 -37 50
-13 11 -23 25 -23 30 0 6 -14 26 -30 45 -16 19 -30 38 -30 43 0 4 -14 21 -30
39 -17 17 -33 42 -36 54 -3 12 -12 25 -20 28 -8 3 -14 12 -14 20 0 8 -6 19
-12 23 -16 10 -58 69 -58 82 0 5 -7 11 -15 15 -8 3 -20 17 -25 31 -5 14 -14
25 -20 25 -5 0 -10 6 -10 13 0 8 -11 24 -25 37 l-25 23 -1 -49z"/>
<path d="M15341 11940 c-2 -30 12 -59 30 -65 10 -4 19 -13 19 -21 0 -8 5 -12
10 -9 6 3 10 1 10 -4 0 -6 -7 -11 -15 -11 -8 0 -15 -7 -15 -16 0 -8 5 -12 10
-9 6 3 15 3 21 -1 8 -4 7 -9 -2 -14 -10 -7 -9 -14 4 -34 18 -27 24 -51 6 -26
-8 11 -9 9 -3 -10 4 -14 11 -26 15 -28 5 -2 9 -14 9 -27 0 -13 3 -31 7 -41 6
-16 7 -16 15 2 4 11 5 3 1 -20 -4 -28 -3 -37 6 -32 6 4 11 0 12 -11 1 -35 8
-56 19 -63 7 -4 11 -10 10 -14 -4 -14 12 -82 24 -101 7 -11 18 -42 25 -70 7
-27 16 -54 21 -60 4 -5 11 -25 15 -42 3 -18 10 -33 15 -33 4 0 13 -27 21 -60
7 -33 16 -60 20 -60 4 0 13 -25 19 -55 6 -30 15 -55 20 -55 5 0 14 -25 20 -55
6 -30 15 -57 20 -60 4 -3 11 -21 14 -40 4 -19 11 -35 16 -35 6 0 9 -3 8 -7 -3
-10 62 -215 72 -228 5 -5 11 -27 15 -47 4 -21 11 -38 15 -38 4 0 13 -27 20
-60 7 -33 16 -60 20 -60 5 0 13 -23 20 -50 7 -28 16 -52 20 -55 5 -3 11 -23
15 -45 4 -22 11 -40 15 -40 13 0 20 86 24 305 2 110 11 459 19 775 9 316 16
605 17 643 l0 67 -34 0 c-19 0 -36 -4 -38 -9 -4 -12 -608 -20 -608 -8 0 5 5 5
10 2 6 -3 10 -1 10 5 0 7 -6 10 -14 7 -10 -4 -16 2 -19 16 -2 12 -5 15 -6 7z"/>
<path d="M18230 11630 c-14 -11 -30 -24 -37 -30 -7 -5 -16 -10 -21 -10 -5 0
-45 -27 -90 -60 -45 -33 -86 -60 -90 -60 -4 0 -35 -19 -68 -42 -33 -24 -67
-47 -76 -53 -29 -18 -223 -150 -228 -155 -3 -3 -57 -40 -120 -82 -63 -42 -144
-97 -180 -122 -36 -25 -72 -50 -80 -55 -8 -6 -45 -31 -82 -56 -37 -25 -71 -45
-77 -45 -5 0 -11 -4 -13 -9 -3 -9 -200 -146 -244 -169 -13 -7 -24 -17 -24 -23
0 -5 -6 -9 -12 -9 -7 0 -40 -21 -72 -45 -33 -25 -63 -45 -68 -45 -5 0 -14 -5
-21 -10 -33 -28 -178 -130 -186 -130 -4 0 -16 -9 -26 -20 -10 -11 -22 -20 -27
-20 -5 0 -33 -18 -62 -40 -29 -22 -58 -40 -63 -40 -6 0 -13 -7 -17 -15 -3 -8
-10 -15 -15 -15 -14 0 -213 -141 -208 -147 7 -6 167 20 167 28 0 4 37 12 83
19 45 7 87 16 92 20 6 4 47 13 93 20 45 7 82 16 82 20 0 4 41 13 90 19 50 7
90 16 90 21 0 4 27 10 60 14 33 4 62 11 65 15 3 5 43 14 90 21 47 7 85 15 85
20 0 4 41 13 90 20 50 7 90 16 90 20 0 4 27 10 60 14 33 4 60 11 60 15 0 5 21
11 48 15 26 4 65 9 87 12 22 4 42 10 45 14 3 4 44 13 93 20 48 7 87 16 87 20
0 4 27 10 60 14 33 4 62 11 65 16 3 4 14 6 24 3 10 -3 22 0 25 6 4 6 18 11 31
11 13 0 26 4 29 9 3 4 18 6 32 3 19 -3 25 -1 20 7 -5 7 3 11 23 12 17 1 34 2
39 3 4 1 33 5 64 10 32 4 60 11 63 16 3 4 -14 4 -36 -1 -23 -6 -44 -8 -46 -5
-8 8 79 28 99 23 25 -7 25 -3 39 278 6 132 15 245 19 250 5 6 11 81 15 168 4
86 11 157 16 157 5 0 9 41 9 90 0 50 -3 90 -7 90 -5 -1 -19 -10 -33 -20z"/>
<path d="M10680 3420 l0 -3300 470 0 470 0 0 3300 0 3300 -470 0 -470 0 0
-3300z"/>
<path d="M20 5510 l0 -420 975 0 975 0 0 -2485 0 -2485 470 0 470 0 0 2485 0
2485 980 0 980 0 0 420 0 420 -2425 0 -2425 0 0 -420z"/>
<path d="M7385 4534 c-401 -57 -678 -158 -973 -354 -500 -332 -848 -844 -966
-1420 -69 -340 -58 -721 30 -1070 110 -431 348 -814 687 -1106 374 -322 812
-504 1337 -555 153 -14 462 -6 610 16 488 75 909 277 1304 628 l49 43 -224
322 -223 321 -30 -24 c-315 -257 -557 -381 -882 -452 -120 -26 -145 -28 -349
-28 -189 0 -235 4 -326 23 -482 101 -835 388 -999 814 -24 62 -70 232 -70 259
0 19 38 19 1605 19 1275 0 1607 3 1610 13 3 6 17 80 31 162 31 186 43 485 25
645 -54 468 -240 861 -561 1181 -290 289 -647 470 -1080 545 -91 15 -530 29
-605 18z m381 -795 c521 -72 872 -414 933 -909 6 -46 11 -95 11 -107 l0 -23
-1169 0 -1169 0 18 69 c70 272 231 532 432 697 263 217 615 319 944 273z"/>
<path d="M14710 4533 c-1029 -110 -1862 -890 -2015 -1888 -37 -242 -29 -586
20 -825 168 -825 831 -1519 1652 -1730 222 -58 283 -64 588 -65 249 0 294 3
408 23 470 85 868 289 1211 622 371 360 595 801 668 1315 19 136 16 494 -6
635 -96 631 -450 1180 -995 1544 -281 188 -625 317 -964 361 -108 14 -465 19
-567 8z m512 -874 c241 -48 454 -160 636 -333 122 -117 208 -233 281 -381 92
-187 134 -342 151 -554 52 -697 -364 -1303 -1009 -1467 -333 -85 -716 -30
-1005 144 -94 56 -243 180 -308 255 -505 585 -445 1539 129 2040 307 267 722
377 1125 296z"/>
<path d="M19440 4529 c-610 -69 -1060 -384 -1215 -852 -88 -265 -78 -592 25
-840 112 -270 385 -509 810 -709 58 -27 260 -115 450 -195 413 -174 529 -227
619 -287 163 -109 227 -237 201 -401 -44 -272 -330 -431 -745 -412 -373 17
-703 179 -1059 521 -49 48 -92 86 -96 86 -7 0 -523 -565 -528 -579 -4 -12 116
-147 220 -247 529 -510 1331 -713 2080 -528 399 99 730 330 897 625 111 198
158 415 148 685 -12 323 -110 543 -340 761 -217 205 -480 350 -1060 584 -506
205 -650 291 -725 434 -24 44 -27 61 -27 150 0 87 3 107 26 155 44 93 127 163
238 202 261 90 625 52 921 -97 126 -63 212 -123 348 -242 l60 -53 233 267
c129 147 242 277 252 290 19 24 19 24 -40 90 -133 153 -356 321 -546 413 -193
93 -413 154 -649 179 -112 13 -388 12 -498 0z"/>
</g>
</svg>
